#!OML:ASF H:\Terrain\Patient Classification 1\Terrain2\Thursday\justin.ASF
:FULLY-SPECIFIED
:DEGREES
1099
root 19.5874 23.7577 21.8905 134.981 -85.6036 -130.19
lowerback 4.99502 -0.360352 1.8346
upperback 1.93994 -0.453967 4.06038
thorax -0.784567 -0.278962 3.17664
lowerneck -11.4703 -0.700471 -9.48531
upperneck 40.1702 -2.84794 5.46207
head 16.6005 -2.58466 3.46841
rclavicle -1.15295e-014 1.59028e-014
rhumerus -37.8001 -17.9288 -73.931
rradius 29.0159
rwrist -8.41761
rhand -19.4605 10.2355
rfingers 7.12502
rthumb 6.86067 -19.6333
lclavicle -1.15295e-014 1.59028e-014
lhumerus -32.1692 5.2177 84.9907
lradius 33.8679
lwrist 4.78861
lhand -24.1115 20.2789
lfingers 7.12502
lthumb 2.3697 50.2455
rfemur -20.5758 -4.398 27.1063
rtibia 42.2045
rfoot -22.7479 1.52447
rtoes 14.2379
lfemur -11.8481 -1.45657 -15.6815
ltibia 34.8718
lfoot -21.8224 -13.4925
ltoes 17.4688
1100
root 19.5728 23.7751 21.8853 134.722 -85.284 -129.748
lowerback 5.05868 -0.348345 2.08434
upperback 1.83933 -0.420791 4.1687
thorax -0.925599 -0.263234 3.14809
lowerneck -11.4748 -0.648928 -9.31163
upperneck 40.2129 -2.73888 5.24027
head 16.6052 -2.54537 3.35522
rclavicle -1.70955e-014 -3.65764e-014
rhumerus -38.008 -17.575 -74.1081
rradius 29.1792
rwrist -8.14746
rhand -19.2799 10.4112
rfingers 7.12502
rthumb 7.03493 -19.4519
lclavicle -1.70955e-014 -3.65764e-014
lhumerus -32.3878 5.2893 85.2055
lradius 33.9795
lwrist 5.0265
lhand -24.1663 20.356
lfingers 7.12502
lthumb 2.31676 50.3232
rfemur -20.7179 -4.33451 27.4267
rtibia 42.2609
rfoot -22.9056 1.56645
rtoes 13.8691
lfemur -11.7879 -2.21165 -15.2811
ltibia 34.8254
lfoot -21.2886 -13.9501
ltoes 24.4194
1101
root 19.5578 23.7625 21.8766 135.92 -85.135 -130.95
lowerback 5.22562 -0.33109 2.0258
upperback 1.81316 -0.392442 4.21776
thorax -1.04609 -0.249954 3.23258
lowerneck -11.3962 -0.559525 -9.06853
upperneck 40.1555 -2.59966 5.05121
head 16.5299 -2.47399 3.24671
rclavicle -1.98785e-016 3.02153e-014
rhumerus -38.0856 -17.4947 -74.1577
rradius 29.1507
rwrist -7.98618
rhand -18.9235 10.7449
rfingers 7.12502
rthumb 7.37896 -19.1064
lclavicle -1.98785e-016 3.02153e-014
lhumerus -32.553 5.33925 85.3378
lradius 34.0292
lwrist 4.69155
lhand -23.4667 20.2762
lfingers 7.12502
lthumb 2.99237 50.2349
rfemur -20.67 -4.15503 27.5036
rtibia 42.3891
rfoot -23.0175 1.51316
rtoes 14.1381
lfemur -11.7403 -1.63916 -15.242
ltibia 34.7348
lfoot -21.376 -13.7716
ltoes 22.3204
1102
root 19.5366 23.7551 21.8672 137.763 -85.1323 -132.8
lowerback 5.25949 -0.336849 1.84039
upperback 1.83999 -0.40908 4.23233
thorax -1.03542 -0.258768 3.35348
lowerneck -11.2965 -0.517248 -9.13046
upperneck 39.9711 -2.52736 5.11418
head 16.3987 -2.43609 3.29328
rclavicle 1.98785e-016 1.51076e-014
rhumerus -37.9843 -17.212 -74.3525
rradius 29.0447
rwrist -8.23944
rhand -19.1769 10.8465
rfingers 7.12502
rthumb 7.13442 -19.0132
lclavicle 1.98785e-016 1.51076e-014
lhumerus -32.654 5.57952 85.5374
lradius 34.0637
lwrist 4.34295
lhand -23.0601 20.1489
lfingers 7.12502
lthumb 3.3851 50.1017
rfemur -20.5767 -3.92508 27.4013
rtibia 42.4393
rfoot -23.148 1.43417
rtoes 14.1107
lfemur -11.6598 -1.25766 -15.3863
ltibia 34.6506
lfoot -21.6275 -13.4231
ltoes 19.2089
1103
root 19.5089 23.7597 21.8641 140.604 -85.4282 -135.544
lowerback 5.10141 -0.49843 1.3621
upperback 1.84801 -0.654602 4.36191
thorax -0.921228 -0.38363 3.77083
lowerneck -11.2514 -0.455756 -9.53308
upperneck 39.8475 -2.27171 5.02544
head 16.3016 -2.39677 3.36456
rclavicle 2.98177e-015 5.56597e-015
rhumerus -37.7191 -16.2643 -74.5008
rradius 28.9802
rwrist -8.63599
rhand -19.0253 10.7055
rfingers 7.12502
rthumb 7.28071 -19.1492
lclavicle 2.98177e-015 5.56597e-015
lhumerus -32.9451 5.86633 86.1083
lradius 34.3578
lwrist 4.945
lhand -23.7252 20.4101
lfingers 7.12502
lthumb 2.74276 50.3722
rfemur -20.6638 -3.99672 27.0035
rtibia 42.5028
rfoot -23.2773 1.35214
rtoes 13.3288
lfemur -11.587 -1.44166 -15.8144
ltibia 34.5368
lfoot -21.7501 -13.3611
ltoes 19.017
1104
root 19.4827 23.7618 21.8638 142.935 -85.7284 -137.804
lowerback 4.97914 -0.461808 1.34017
upperback 1.95243 -0.613087 4.15399
thorax -0.750227 -0.36099 3.56147
lowerneck -11.4886 -0.576201 -9.31712
upperneck 39.8131 -2.46382 5.01296
head 16.3597 -2.43426 3.28992
rclavicle 5.96354e-016 -1.90833e-014
rhumerus -37.6035 -16.61 -74.6227
rradius 28.9833
rwrist -8.50203
rhand -18.4286 10.5492
rfingers 7.12502
rthumb 7.85669 -19.2848
lclavicle 5.96354e-016 -1.90833e-014
lhumerus -32.9014 4.80349 86.6051
lradius 34.6878
lwrist 5.94162
lhand -24.4484 20.7935
lfingers 7.12502
lthumb 2.0443 50.7634
rfemur -20.6514 -4.34136 26.6287
rtibia 42.4542
rfoot -23.3107 1.63187
rtoes 13.9165
lfemur -11.5533 -1.58824 -16.2082
ltibia 34.5324
lfoot -21.9902 -13.1707
ltoes 18.1188
1105
root 19.4636 23.7665 21.8546 140.817 -85.4445 -135.644
lowerback 5.07926 0.180183 2.52837
upperback 2.18327 0.294367 3.41031
thorax -0.605361 0.104771 2.07134
lowerneck -12.126 -1.18544 -8.03561
upperneck 39.7547 -3.82102 5.42256
head 16.6114 -2.71699 3.01696
rclavicle 5.96354e-015 -7.95139e-016
rhumerus -38.0004 -19.501 -74.8406
rradius 29.2694
rwrist -7.93406
rhand -18.6295 10.7763
rfingers 7.12502
rthumb 7.66282 -19.0649
lclavicle 5.96354e-015 -7.95139e-016
lhumerus -31.8 1.94777 86.597
lradius 34.1846
lwrist 6.33339
lhand -24.1941 20.7507
lfingers 7.12502
lthumb 2.2899 50.7182
rfemur -20.477 -4.35185 26.9985
rtibia 42.2747
rfoot -23.3629 1.78411
rtoes 14.3891
lfemur -11.4995 -1.92328 -15.8155
ltibia 34.6944
lfoot -22.0771 -12.9561
ltoes 19.672
1106
root 19.4452 23.7635 21.8412 138.412 -85.0183 -133.179
lowerback 5.17854 -0.242528 2.40378
upperback 2.0291 -0.272851 4.06494
thorax -0.804552 -0.189904 2.85202
lowerneck -11.8237 -0.695049 -9.04323
upperneck 39.81 -2.85121 5.46869
head 16.4832 -2.48239 3.384
rclavicle 1.98785e-015 -3.97569e-014
rhumerus -37.7754 -17.3186 -74.9818
rradius 29.2879
rwrist -8.07082
rhand -18.9597 11.063
rfingers 7.12502
rthumb 7.34401 -18.7895
lclavicle 1.98785e-015 -3.97569e-014
lhumerus -32.4752 3.73767 86.8677
lradius 34.2945
lwrist 5.8857
lhand -23.8039 20.8281
lfingers 7.12502
lthumb 2.66676 50.7912
rfemur -20.3369 -4.10975 27.5247
rtibia 42.0846
rfoot -23.5092 1.7685
rtoes 14.2431
lfemur -11.4882 -2.24569 -15.2505
ltibia 34.921
lfoot -22.1264 -12.9093
ltoes 22.1106
1107
root 19.4205 23.7477 21.8238 135.995 -84.6033 -130.728
lowerback 5.16065 -0.473683 2.39715
upperback 1.96885 -0.589911 4.54084
thorax -0.84039 -0.357066 3.36918
lowerneck -11.5467 -0.448045 -9.55434
upperneck 39.7716 -2.34425 5.39964
head 16.3447 -2.36847 3.52527
rclavicle -2.64384e-014 -1.98785e-014
rhumerus -37.5175 -16.0245 -75.0644
rradius 29.2013
rwrist -8.15865
rhand -18.9218 11.1607
rfingers 7.12502
rthumb 7.38064 -18.6905
lclavicle -2.64384e-014 -1.98785e-014
lhumerus -32.9407 4.72543 87.1166
lradius 34.3972
lwrist 5.40176
lhand -23.4486 20.6189
lfingers 7.12502
lthumb 3.00983 50.5774
rfemur -20.2653 -3.81268 28.0914
rtibia 42.0503
rfoot -23.6699 1.62758
rtoes 14.0465
lfemur -11.4944 -1.99242 -14.7172
ltibia 35.0174
lfoot -22.5636 -12.5831
ltoes 19.9209
1108
root 19.3932 23.7449 21.8086 136.401 -84.4901 -131.058
lowerback 5.05313 -0.532241 2.28671
upperback 1.98396 -0.682785 4.67327
thorax -0.757968 -0.406291 3.57297
lowerneck -11.4441 -0.403286 -9.51345
upperneck 39.6745 -2.19486 5.15243
head 16.248 -2.32988 3.42742
rclavicle -1.37161e-014 2.62396e-014
rhumerus -37.3223 -15.6268 -75.2136
rradius 29.2546
rwrist -8.29095
rhand -19.2253 10.8835
rfingers 7.12502
rthumb 7.08765 -18.9778
lclavicle -1.37161e-014 2.62396e-014
lhumerus -33.0645 4.77006 87.4279
lradius 34.4739
lwrist 5.44723
lhand -23.4577 20.6208
lfingers 7.12502
lthumb 3.00107 50.5795
rfemur -20.2384 -3.74302 28.2424
rtibia 42.0177
rfoot -23.7571 1.39473
rtoes 12.8081
lfemur -11.5475 -1.80067 -14.6512
ltibia 35.1452
lfoot -23.0785 -12.1429
ltoes 16.9426
1109
root 19.3752 23.7486 21.831 147.027 -85.3857 -141.379
lowerback 4.91003 -0.497751 1.57786
upperback 1.87498 -0.649367 4.14941
thorax -0.792016 -0.3778 3.42417
lowerneck -11.4344 -0.479839 -9.17905
upperneck 39.6215 -2.36755 5.06809
head 16.2292 -2.35759 3.29993
rclavicle 1.80894e-014 1.43125e-014
rhumerus -37.2197 -15.4813 -75.5054
rradius 29.3052
rwrist -8.75657
rhand -19.7267 10.5779
rfingers 7.12502
rthumb 6.60362 -19.2991
lclavicle 1.80894e-014 1.43125e-014
lhumerus -33.0537 4.1096 87.7291
lradius 34.5207
lwrist 5.39169
lhand -23.5075 20.8891
lfingers 7.12502
lthumb 2.95295 50.8484
rfemur -20.5708 -4.62592 26.7455
rtibia 42.0541
rfoot -23.8682 2.13014
rtoes 12.2176
lfemur -11.8624 -2.02954 -16.2217
ltibia 35.2574
lfoot -23.2825 -11.8151
ltoes 15.9657
